# xmcd
#
# Track frame offsets: 
#        182
#        16275
#        36492
#        52310
#        68797
#        87002
#        104990
#        121740
#        139487
#        155100
#        168070
#
# Disc length: 2509 seconds
#
# Revision: 4
# Processed by: cddbd v1.5.2PL0 Copyright (c) Steve Scherf et al.
# Submitted via: ExactAudioCopy v0.95b4
#
DISCID=9e09cb0b
DTITLE=Huey Lewis and The News - Fore!
DYEAR=1986
DGENRE=Pop
TTITLE0=Jacob's Ladder
TTITLE1=Stuck With You
TTITLE2=Whole Lotta Lovin'
TTITLE3=Doin' It (All For My Baby)
TTITLE4=Hip To Be Square
TTITLE5=I Know What I Like
TTITLE6=I Never Walk Alone
TTITLE7=The Power Of Love
TTITLE8=Forest For The Trees
TTITLE9=Naturally
TTITLE10=Simple As That
EXTD=HUEY LEWIS and THE NEWS - FORE!\n\nChrysalis Records\n094632153425
EXTT0=
EXTT1=
EXTT2=
EXTT3=
EXTT4=
EXTT5=
EXTT6=
EXTT7=
EXTT8=
EXTT9=
EXTT10=
PLAYORDER=
